<svg width="60" height="18" viewBox="0 0 60 18" fill="none" xmlns="http://www.w3.org/2000/svg">
<path d="M8.43377 13H8.23377C8.23377 13.1105 8.32331 13.2 8.43377 13.2V13ZM8.43377 4.27273V4.07273C8.32331 4.07273 8.23377 4.16227 8.23377 4.27273H8.43377ZM13.0616 4.62216L12.9676 4.7987L12.9685 4.79917L13.0616 4.62216ZM14.0332 5.57244L13.8558 5.66487L13.8558 5.66487L14.0332 5.57244ZM14.0332 8.31676L13.8564 8.2233L13.8564 8.2233L14.0332 8.31676ZM13.0659 9.25426L13.1576 9.43197L13.1585 9.4315L13.0659 9.25426ZM9.01332 9.59091H8.81332C8.81332 9.70137 8.90286 9.79091 9.01332 9.79091V9.59091ZM9.01332 8.63636V8.43636C8.90286 8.43636 8.81332 8.52591 8.81332 8.63636H9.01332ZM12.4906 8.43182L12.4047 8.25118L12.404 8.25151L12.4906 8.43182ZM13.1127 7.85227L12.9351 7.76044L12.9347 7.76121L13.1127 7.85227ZM12.4863 5.42756L12.3962 5.60609L12.3976 5.6068L12.4863 5.42756ZM9.49059 5.21023V5.01023C9.38013 5.01023 9.29059 5.09977 9.29059 5.21023H9.49059ZM9.49059 13V13.2C9.60105 13.2 9.69059 13.1105 9.69059 13H9.49059ZM12.5417 9.07955L12.7171 8.98345C12.682 8.91938 12.6148 8.87955 12.5417 8.87955V9.07955ZM14.6895 13V13.2C14.7601 13.2 14.8255 13.1627 14.8615 13.1019C14.8975 13.0411 14.8988 12.9659 14.8649 12.9039L14.6895 13ZM13.4622 13L13.2861 13.0949C13.321 13.1596 13.3886 13.2 13.4622 13.2V13ZM11.3485 9.07955V8.87955C11.2781 8.87955 11.2129 8.91657 11.1768 8.97703C11.1407 9.03749 11.1391 9.11248 11.1725 9.17446L11.3485 9.07955ZM8.63377 13V4.27273H8.23377V13H8.63377ZM8.43377 4.47273H11.3826V4.07273H8.43377V4.47273ZM11.3826 4.47273C12.0434 4.47273 12.5679 4.58584 12.9676 4.79869L13.1556 4.44562C12.6804 4.19257 12.0855 4.07273 11.3826 4.07273V4.47273ZM12.9685 4.79917C13.3732 5.01205 13.6661 5.30073 13.8558 5.66487L14.2106 5.48002C13.9799 5.03734 13.625 4.6925 13.1547 4.44515L12.9685 4.79917ZM13.8558 5.66487C14.0494 6.0362 14.1485 6.4626 14.1485 6.94886H14.5485C14.5485 6.40672 14.4375 5.9155 14.2106 5.48002L13.8558 5.66487ZM14.1485 6.94886C14.1485 7.43519 14.0493 7.85826 13.8564 8.2233L14.21 8.41022C14.4375 7.97981 14.5485 7.49095 14.5485 6.94886H14.1485ZM13.8564 8.2233C13.6668 8.58198 13.3754 8.86674 12.9732 9.07703L13.1585 9.4315C13.6257 9.18724 13.9792 8.84699 14.21 8.41022L13.8564 8.2233ZM12.9741 9.07655C12.5766 9.28183 12.0554 9.39091 11.3997 9.39091V9.79091C12.0962 9.79091 12.6859 9.67556 13.1576 9.43197L12.9741 9.07655ZM11.3997 9.39091H9.01332V9.79091H11.3997V9.39091ZM9.21332 9.59091V8.63636H8.81332V9.59091H9.21332ZM9.01332 8.83636H11.3656V8.43636H9.01332V8.83636ZM11.3656 8.83636C11.8483 8.83636 12.2563 8.76614 12.5771 8.61212L12.404 8.25151C12.1567 8.37022 11.8147 8.43636 11.3656 8.43636V8.83636ZM12.5764 8.61246C12.8976 8.4598 13.1403 8.23761 13.2908 7.94333L12.9347 7.76121C12.8295 7.96693 12.6574 8.13111 12.4047 8.25118L12.5764 8.61246ZM13.2904 7.9441C13.4387 7.65713 13.5088 7.32308 13.5088 6.94886H13.1088C13.1088 7.27351 13.0481 7.54174 12.9351 7.76044L13.2904 7.9441ZM13.5088 6.94886C13.5088 6.57441 13.4387 6.23729 13.2916 5.94323L12.9339 6.12211C13.0482 6.35078 13.1088 6.62446 13.1088 6.94886H13.5088ZM13.2916 5.94323C13.1396 5.63915 12.8971 5.40773 12.5751 5.24832L12.3976 5.6068C12.6495 5.73148 12.8245 5.90346 12.9339 6.12211L13.2916 5.94323ZM12.5765 5.24903C12.2516 5.08498 11.8379 5.01023 11.3485 5.01023V5.41023C11.8023 5.41023 12.1472 5.48036 12.3962 5.60609L12.5765 5.24903ZM11.3485 5.01023H9.49059V5.41023H11.3485V5.01023ZM9.29059 5.21023V13H9.69059V5.21023H9.29059ZM9.49059 12.8H8.43377V13.2H9.49059V12.8ZM12.3663 9.17564L14.514 13.0961L14.8649 12.9039L12.7171 8.98345L12.3663 9.17564ZM14.6895 12.8H13.4622V13.2H14.6895V12.8ZM13.6382 12.9051L11.5246 8.98463L11.1725 9.17446L13.2861 13.0949L13.6382 12.9051ZM11.3485 9.27955H12.5417V8.87955H11.3485V9.27955ZM17.0151 12.7188L16.9099 12.8888L16.9111 12.8896L17.0151 12.7188ZM15.9625 11.5426L15.7824 11.6296L15.783 11.6308L15.9625 11.5426ZM15.9625 8.00568L15.7823 7.91904L15.7821 7.91946L15.9625 8.00568ZM16.9938 6.80398L17.103 6.97154L17.1032 6.97137L16.9938 6.80398ZM19.5549 6.53977L19.6196 6.35053L19.6196 6.35053L19.5549 6.53977ZM20.4625 7.09375L20.3257 7.23966L20.3266 7.24042L20.4625 7.09375ZM21.1145 8.09943L21.301 8.02713L21.301 8.02713L21.1145 8.09943ZM21.3574 10.0682V10.2682C21.4679 10.2682 21.5574 10.1786 21.5574 10.0682H21.3574ZM16.312 10.0682H16.112C16.112 10.1786 16.2015 10.2682 16.312 10.2682V10.0682ZM16.312 9.19886V8.99886C16.2015 8.99886 16.112 9.08841 16.112 9.19886H16.312ZM20.3347 9.19886V9.39886C20.4452 9.39886 20.5347 9.30932 20.5347 9.19886H20.3347ZM20.1131 8.21023L19.9342 8.29967L19.9349 8.30106L20.1131 8.21023ZM19.4909 7.52415L19.3846 7.69355L19.3854 7.69405L19.4909 7.52415ZM17.5051 7.57102L17.6172 7.73668L17.6176 7.73644L17.5051 7.57102ZM16.8361 8.33807L16.6569 8.24927L16.6569 8.24927L16.8361 8.33807ZM16.8574 11.1889L16.6782 11.2778L16.6791 11.2795L16.8574 11.1889ZM17.5776 11.9688L17.4768 12.1415L17.478 12.1422L17.5776 11.9688ZM19.3631 12.1222L19.4286 12.3111L19.4301 12.3106L19.3631 12.1222ZM19.9213 11.7812L20.0601 11.9253L20.0615 11.924L19.9213 11.7812ZM20.2836 11.2102L20.3376 11.0177C20.2376 10.9896 20.1328 11.0427 20.0963 11.14L20.2836 11.2102ZM21.2551 11.483L21.4462 11.5422C21.4622 11.4907 21.4566 11.4348 21.4308 11.3874C21.4051 11.34 21.3612 11.305 21.3092 11.2904L21.2551 11.483ZM20.7395 12.3523L20.8826 12.492L20.8834 12.4912L20.7395 12.3523ZM19.8446 12.9318L19.9163 13.1185L19.9176 13.118L19.8446 12.9318ZM18.0336 5.56818L17.8565 5.4751C17.8239 5.53709 17.8261 5.61162 17.8624 5.67158C17.8986 5.73154 17.9635 5.76818 18.0336 5.76818V5.56818ZM19.0733 3.59091V3.39091C18.999 3.39091 18.9309 3.43208 18.8963 3.49782L19.0733 3.59091ZM20.2495 3.59091L20.4154 3.70251C20.4567 3.64118 20.4607 3.56211 20.426 3.49689C20.3912 3.43166 20.3234 3.39091 20.2495 3.39091V3.59091ZM18.9199 5.56818V5.76818C18.9865 5.76818 19.0487 5.73504 19.0859 5.67978L18.9199 5.56818ZM18.6472 12.9364C18.0466 12.9364 17.5399 12.8041 17.1191 12.5479L16.9111 12.8896C17.405 13.1902 17.9864 13.3364 18.6472 13.3364V12.9364ZM17.1203 12.5487C16.6993 12.2882 16.3734 11.9252 16.142 11.4544L15.783 11.6308C16.0459 12.1657 16.4218 12.5868 16.9099 12.8888L17.1203 12.5487ZM16.1426 11.4556C15.9137 10.9818 15.7961 10.4245 15.7961 9.77841H15.3961C15.3961 10.4732 15.5227 11.092 15.7825 11.6296L16.1426 11.4556ZM15.7961 9.77841C15.7961 9.13238 15.9137 8.57185 16.143 8.0919L15.7821 7.91946C15.5227 8.46224 15.3961 9.08353 15.3961 9.77841H15.7961ZM16.1428 8.09233C16.3755 7.60817 16.6959 7.23681 17.103 6.97154L16.8846 6.63641C16.411 6.94501 16.0439 7.37479 15.7823 7.91904L16.1428 8.09233ZM17.1032 6.97137C17.5102 6.70529 17.9882 6.56932 18.5449 6.56932V6.16932C17.9198 6.16932 17.3638 6.32312 16.8843 6.63658L17.1032 6.97137ZM18.5449 6.56932C18.8632 6.56932 19.178 6.62228 19.4902 6.72902L19.6196 6.35053C19.267 6.22999 18.9085 6.16932 18.5449 6.16932V6.56932ZM19.4902 6.72902C19.794 6.8329 20.0724 7.0021 20.3257 7.23966L20.5993 6.94784C20.3073 6.67404 19.9805 6.47392 19.6196 6.35053L19.4902 6.72902ZM20.3266 7.24042C20.5729 7.46883 20.7749 7.77671 20.9281 8.17174L21.301 8.02713C21.1303 7.58692 20.8976 7.22435 20.5985 6.94708L20.3266 7.24042ZM20.9281 8.17174C21.0784 8.55957 21.1574 9.04757 21.1574 9.64205H21.5574C21.5574 9.01493 21.4745 8.47452 21.301 8.02713L20.9281 8.17174ZM21.1574 9.64205V10.0682H21.5574V9.64205H21.1574ZM21.3574 9.86818H16.312V10.2682H21.3574V9.86818ZM16.512 10.0682V9.19886H16.112V10.0682H16.512ZM16.312 9.39886H20.3347V8.99886H16.312V9.39886ZM20.5347 9.19886C20.5347 8.80228 20.4552 8.4409 20.2913 8.11939L19.9349 8.30106C20.0665 8.5591 20.1347 8.85681 20.1347 9.19886H20.5347ZM20.292 8.12078C20.1309 7.79861 19.8984 7.54178 19.5965 7.35425L19.3854 7.69405C19.6232 7.84174 19.8055 8.0423 19.9342 8.29967L20.292 8.12078ZM19.5973 7.35475C19.2937 7.16423 18.9403 7.07273 18.5449 7.07273V7.47273C18.8768 7.47273 19.1541 7.54884 19.3846 7.69354L19.5973 7.35475ZM18.5449 7.07273C18.1097 7.07273 17.7228 7.18131 17.3927 7.40561L17.6176 7.73644C17.8728 7.56301 18.179 7.47273 18.5449 7.47273V7.07273ZM17.3931 7.40537C17.0745 7.62089 16.8284 7.90313 16.6569 8.24927L17.0153 8.42686C17.1563 8.14233 17.3563 7.9132 17.6172 7.73668L17.3931 7.40537ZM16.6569 8.24927C16.4866 8.59293 16.4017 8.96147 16.4017 9.35227H16.8017C16.8017 9.02148 16.8731 8.71389 17.0153 8.42686L16.6569 8.24927ZM16.4017 9.35227V9.93182H16.8017V9.35227H16.4017ZM16.4017 9.93182C16.4017 10.4484 16.4907 10.8996 16.6782 11.2778L17.0366 11.1001C16.8832 10.7907 16.8017 10.4039 16.8017 9.93182H16.4017ZM16.6791 11.2795C16.8684 11.652 17.1343 11.9417 17.4768 12.1415L17.6784 11.796C17.4073 11.6379 17.193 11.4077 17.0357 11.0983L16.6791 11.2795ZM17.478 12.1422C17.8194 12.3382 18.2113 12.433 18.6472 12.433V12.033C18.2706 12.033 17.9494 11.9516 17.6772 11.7953L17.478 12.1422ZM18.6472 12.433C18.93 12.433 19.1912 12.3934 19.4286 12.3111L19.2976 11.9332C19.1089 11.9986 18.8928 12.033 18.6472 12.033V12.433ZM19.4301 12.3106C19.6713 12.2249 19.8822 12.0967 20.0601 11.9253L19.7826 11.6372C19.648 11.7669 19.4868 11.866 19.2962 11.9337L19.4301 12.3106ZM20.0615 11.924C20.2407 11.748 20.3765 11.532 20.4708 11.2805L20.0963 11.14C20.0202 11.343 19.9145 11.5077 19.7812 11.6385L20.0615 11.924ZM20.2295 11.4028L21.2011 11.6755L21.3092 11.2904L20.3376 11.0177L20.2295 11.4028ZM21.0641 11.4237C20.9712 11.7231 20.8156 11.9857 20.5957 12.2133L20.8834 12.4912C21.1464 12.2189 21.3345 11.9019 21.4462 11.5422L21.0641 11.4237ZM20.5965 12.2125C20.3768 12.4374 20.1031 12.6157 19.7716 12.7456L19.9176 13.118C20.2964 12.9696 20.6193 12.7615 20.8826 12.492L20.5965 12.2125ZM19.7729 12.7451C19.4442 12.8714 19.0698 12.9364 18.6472 12.9364V13.3364C19.1109 13.3364 19.5349 13.265 19.9163 13.1185L19.7729 12.7451ZM18.2106 5.66127L19.2503 3.684L18.8963 3.49782L17.8565 5.4751L18.2106 5.66127ZM19.0733 3.79091H20.2495V3.39091H19.0733V3.79091ZM20.0835 3.47931L18.754 5.45658L19.0859 5.67978L20.4154 3.70251L20.0835 3.47931ZM18.9199 5.36818H18.0336V5.76818H18.9199V5.36818ZM27.5236 7.92045L27.5781 8.1129C27.6307 8.098 27.6749 8.0622 27.7005 8.01382C27.726 7.96545 27.7306 7.90872 27.7132 7.85686L27.5236 7.92045ZM26.6202 8.17614L26.4331 8.24675C26.4698 8.34393 26.5747 8.39686 26.6747 8.36858L26.6202 8.17614ZM26.3688 7.73722L26.2084 7.85674L26.2111 7.86022L26.3688 7.73722ZM25.9256 7.37926L26.015 7.20038L26.015 7.20038L25.9256 7.37926ZM24.204 7.51562L24.3174 7.68038L24.3178 7.68013L24.204 7.51562ZM24.0804 8.80256L23.9558 8.95897L23.9558 8.95897L24.0804 8.80256ZM24.9327 9.16477L24.8842 9.3588L24.885 9.359L24.9327 9.16477ZM25.9043 9.40341L25.8566 9.59764L25.8571 9.59777L25.9043 9.40341ZM27.2125 10.0554L27.0697 10.1954L27.0704 10.1961L27.2125 10.0554ZM27.3191 12.1818L27.1576 12.0638L27.1569 12.0648L27.3191 12.1818ZM23.4284 12.7017L23.5389 12.535L23.5389 12.535L23.4284 12.7017ZM22.5975 11.4318L22.549 11.2378C22.4447 11.2638 22.3797 11.3676 22.4017 11.4728L22.5975 11.4318ZM23.552 11.1932L23.7457 11.1432C23.7182 11.0368 23.6101 10.9725 23.5035 10.9992L23.552 11.1932ZM24.0676 11.9858L23.9533 12.1499L23.9542 12.1505L24.0676 11.9858ZM26.1855 11.9517L26.3026 12.1139L26.3029 12.1137L26.1855 11.9517ZM26.3645 10.6562L26.2244 10.7989L26.2257 10.8002L26.3645 10.6562ZM25.6316 10.3068L25.5859 10.5015L25.5862 10.5016L25.6316 10.3068ZM24.5407 10.0511L24.4945 10.2457L24.495 10.2459L24.5407 10.0511ZM23.2196 9.39062L23.0728 9.5264L23.0741 9.52783L23.2196 9.39062ZM23.1131 7.28125L22.9523 7.16228L22.9516 7.16333L23.1131 7.28125ZM23.9696 6.61222L23.8883 6.42951L23.8877 6.42975L23.9696 6.61222ZM26.731 6.79545L26.6091 6.95398L26.6096 6.95443L26.731 6.79545ZM27.4692 7.72801L26.5657 7.98369L26.6747 8.36858L27.5781 8.1129L27.4692 7.72801ZM26.8073 8.10552C26.7426 7.93401 26.6482 7.77027 26.5265 7.61421L26.2111 7.86022C26.311 7.98826 26.3842 8.11713 26.4331 8.24675L26.8073 8.10552ZM26.5292 7.61772C26.3997 7.44403 26.226 7.30587 26.015 7.20038L25.8362 7.55815C26.0002 7.64016 26.1219 7.74062 26.2084 7.85671L26.5292 7.61772ZM26.015 7.20038C25.791 7.08836 25.5175 7.03864 25.2054 7.03864V7.43864C25.4786 7.43864 25.6852 7.48266 25.8362 7.55815L26.015 7.20038ZM25.2054 7.03864C24.7738 7.03864 24.3978 7.13843 24.0903 7.35112L24.3178 7.68013C24.5443 7.5235 24.8359 7.43864 25.2054 7.43864V7.03864ZM24.0906 7.35087C23.781 7.56393 23.6077 7.85311 23.6077 8.21023H24.0077C24.0077 8.00484 24.0986 7.83096 24.3174 7.68038L24.0906 7.35087ZM23.6077 8.21023C23.6077 8.51585 23.7224 8.77297 23.9558 8.95897L24.2051 8.64614C24.0749 8.54237 24.0077 8.40461 24.0077 8.21023H23.6077ZM23.9558 8.95897C24.1706 9.13012 24.4871 9.25953 24.8842 9.3588L24.9812 8.97074C24.6056 8.87683 24.3539 8.76477 24.2051 8.64614L23.9558 8.95897ZM24.885 9.359L25.8566 9.59764L25.952 9.20918L24.9804 8.97055L24.885 9.359ZM25.8571 9.59777C26.422 9.73488 26.8185 9.93923 27.0697 10.1954L27.3553 9.91537C27.0327 9.58634 26.557 9.35603 25.9515 9.20905L25.8571 9.59777ZM27.0704 10.1961C27.3156 10.4438 27.4429 10.7645 27.4429 11.1761H27.8429C27.8429 10.673 27.6833 10.2466 27.3547 9.91467L27.0704 10.1961ZM27.4429 11.1761C27.4429 11.5098 27.3478 11.8035 27.1576 12.0638L27.4805 12.2998C27.7221 11.9692 27.8429 11.5924 27.8429 11.1761H27.4429ZM27.1569 12.0648C26.9675 12.3275 26.6991 12.5396 26.343 12.6979L26.5054 13.0634C26.9163 12.8808 27.2445 12.6271 27.4813 12.2988L27.1569 12.0648ZM26.343 12.6979C25.9898 12.8549 25.5725 12.9364 25.0861 12.9364V13.3364C25.6168 13.3364 26.0915 13.2474 26.5054 13.0634L26.343 12.6979ZM25.0861 12.9364C24.4471 12.9364 23.9358 12.7978 23.5389 12.535L23.318 12.8684C23.7961 13.1851 24.3899 13.3364 25.0861 13.3364V12.9364ZM23.5389 12.535C23.1492 12.2768 22.8999 11.9009 22.7932 11.3909L22.4017 11.4728C22.528 12.0763 22.8327 12.547 23.318 12.8684L23.5389 12.535ZM22.646 11.6258L23.6005 11.3872L23.5035 10.9992L22.549 11.2378L22.646 11.6258ZM23.3584 11.2432C23.459 11.6329 23.6544 11.9416 23.9533 12.1499L24.182 11.8217C23.9752 11.6777 23.8269 11.458 23.7457 11.1432L23.3584 11.2432ZM23.9542 12.1505C24.2526 12.3561 24.6297 12.45 25.0691 12.45V12.05C24.6846 12.05 24.3941 11.9678 24.1811 11.8211L23.9542 12.1505ZM25.0691 12.45C25.5643 12.45 25.9822 12.3451 26.3026 12.1139L26.0685 11.7895C25.8378 11.956 25.5114 12.05 25.0691 12.05V12.45ZM26.3029 12.1137C26.6202 11.8838 26.8032 11.5871 26.8032 11.2273H26.4032C26.4032 11.4299 26.3077 11.6162 26.0682 11.7897L26.3029 12.1137ZM26.8032 11.2273C26.8032 10.9474 26.7028 10.7046 26.5034 10.5123L26.2257 10.8002C26.3445 10.9147 26.4032 11.0526 26.4032 11.2273H26.8032ZM26.5047 10.5136C26.3091 10.3215 26.0251 10.1931 25.6769 10.112L25.5862 10.5016C25.8971 10.574 26.1017 10.6785 26.2244 10.7989L26.5047 10.5136ZM25.6772 10.1121L24.5863 9.85641L24.495 10.2459L25.5859 10.5015L25.6772 10.1121ZM24.5868 9.85653C24.0075 9.71925 23.6093 9.51234 23.3652 9.25342L23.0741 9.52783C23.3925 9.8655 23.875 10.0989 24.4945 10.2457L24.5868 9.85653ZM23.3665 9.25485C23.1258 8.99455 23.002 8.66827 23.002 8.26136H22.602C22.602 8.75786 22.7566 9.18443 23.0728 9.5264L23.3665 9.25485ZM23.002 8.26136C23.002 7.93218 23.0935 7.64725 23.2746 7.39917L22.9516 7.16333C22.7179 7.48344 22.602 7.85191 22.602 8.26136H23.002ZM23.2739 7.40022C23.4613 7.14687 23.7182 6.94427 24.0515 6.79468L23.8877 6.42975C23.4994 6.60403 23.1853 6.84745 22.9523 7.16228L23.2739 7.40022ZM24.051 6.79492C24.3853 6.64604 24.7689 6.56932 25.2054 6.56932V6.16932C24.7215 6.16932 24.2812 6.25453 23.8883 6.42951L24.051 6.79492ZM25.2054 6.56932C25.8259 6.56932 26.2861 6.70553 26.6091 6.95398L26.8529 6.63693C26.4373 6.3172 25.8804 6.16932 25.2054 6.16932V6.56932ZM26.6096 6.95443C26.9484 7.21302 27.1898 7.55405 27.334 7.98405L27.7132 7.85686C27.5449 7.35504 27.2579 6.94607 26.8524 6.63648L26.6096 6.95443ZM33.2818 6.45455V6.25455C33.1713 6.25455 33.0818 6.34409 33.0818 6.45455H33.2818ZM34.2875 6.45455H34.4875C34.4875 6.34409 34.3979 6.25455 34.2875 6.25455V6.45455ZM34.2875 13V13.2C34.3979 13.2 34.4875 13.1105 34.4875 13H34.2875ZM33.2818 13H33.0818C33.0818 13.1105 33.1713 13.2 33.2818 13.2V13ZM33.2818 11.892H33.4818C33.4818 11.7816 33.3922 11.692 33.2818 11.692V11.892ZM33.2136 11.892V11.692C33.1356 11.692 33.0647 11.7374 33.032 11.8082L33.2136 11.892ZM32.4977 12.7401L32.6135 12.9031L32.6145 12.9024L32.4977 12.7401ZM30.1795 12.8168L30.0803 12.9904L30.0815 12.9911L30.1795 12.8168ZM29.4295 11.9986L29.2503 12.0875L29.2506 12.088L29.4295 11.9986ZM29.1568 6.45455V6.25455C29.0463 6.25455 28.9568 6.34409 28.9568 6.45455H29.1568ZM30.1625 6.45455H30.3625C30.3625 6.34409 30.2729 6.25455 30.1625 6.25455V6.45455ZM30.563 11.6875L30.4173 11.8245L30.418 11.8252L30.563 11.6875ZM32.3571 11.9219L32.2692 11.7422L32.2684 11.7426L32.3571 11.9219ZM33.0133 11.3338L32.8477 11.2216L32.8469 11.2229L33.0133 11.3338ZM33.4818 10.3239V6.45455H33.0818V10.3239H33.4818ZM33.2818 6.65455H34.2875V6.25455H33.2818V6.65455ZM34.0875 6.45455V13H34.4875V6.45455H34.0875ZM34.2875 12.8H33.2818V13.2H34.2875V12.8ZM33.4818 13V11.892H33.0818V13H33.4818ZM33.2818 11.692H33.2136V12.092H33.2818V11.692ZM33.032 11.8082C32.8943 12.1065 32.6793 12.363 32.3809 12.5777L32.6145 12.9024C32.9638 12.6512 33.226 12.3423 33.3952 11.9759L33.032 11.8082ZM32.3819 12.577C32.0993 12.7778 31.7335 12.8852 31.2704 12.8852V13.2852C31.796 13.2852 32.2483 13.1626 32.6135 12.9031L32.3819 12.577ZM31.2704 12.8852C30.8915 12.8852 30.5623 12.8026 30.2776 12.6424L30.0815 12.9911C30.4331 13.1888 30.8312 13.2852 31.2704 13.2852V12.8852ZM30.2787 12.6431C29.9985 12.483 29.7746 12.2415 29.6084 11.9091L29.2506 12.088C29.4481 12.483 29.7241 12.7869 30.0803 12.9904L30.2787 12.6431ZM29.6087 11.9097C29.4446 11.579 29.3568 11.1502 29.3568 10.6136H28.9568C28.9568 11.1907 29.0508 11.6852 29.2503 12.0875L29.6087 11.9097ZM29.3568 10.6136V6.45455H28.9568V10.6136H29.3568ZM29.1568 6.65455H30.1625V6.25455H29.1568V6.65455ZM29.9625 6.45455V10.5455H30.3625V6.45455H29.9625ZM29.9625 10.5455C29.9625 11.0616 30.108 11.4954 30.4173 11.8245L30.7088 11.5505C30.484 11.3114 30.3625 10.9838 30.3625 10.5455H29.9625ZM30.418 11.8252C30.7284 12.1519 31.1259 12.3136 31.5943 12.3136V11.9136C31.2275 11.9136 30.9375 11.7913 30.708 11.5498L30.418 11.8252ZM31.5943 12.3136C31.8794 12.3136 32.1639 12.2405 32.4457 12.1012L32.2684 11.7426C32.0332 11.8589 31.8091 11.9136 31.5943 11.9136V12.3136ZM32.4449 12.1015C32.741 11.9567 32.9858 11.7356 33.1797 11.4447L32.8469 11.2229C32.6886 11.4604 32.4959 11.6313 32.2692 11.7422L32.4449 12.1015ZM33.1789 11.446C33.3859 11.1405 33.4818 10.7617 33.4818 10.3239H33.0818C33.0818 10.7042 32.9987 10.9987 32.8477 11.2216L33.1789 11.446ZM36.1294 13H35.9294C35.9294 13.1105 36.019 13.2 36.1294 13.2V13ZM36.1294 6.45455V6.25455C36.019 6.25455 35.9294 6.34409 35.9294 6.45455H36.1294ZM37.101 6.45455H37.301C37.301 6.34409 37.2115 6.25455 37.101 6.25455V6.45455ZM37.101 7.47727H36.901C36.901 7.58773 36.9906 7.67727 37.101 7.67727V7.47727ZM37.1863 7.47727V7.67727C37.2687 7.67727 37.3426 7.62674 37.3726 7.54998L37.1863 7.47727ZM37.8468 6.66335L37.954 6.83215L37.9552 6.83143L37.8468 6.66335ZM40.0201 6.66335L39.9072 6.8285L39.9091 6.82976L40.0201 6.66335ZM40.6976 7.47727L40.5162 7.56136C40.5489 7.63204 40.6197 7.67727 40.6976 7.67727V7.47727ZM40.7658 7.47727V7.67727C40.8418 7.67727 40.9112 7.6342 40.945 7.56611L40.7658 7.47727ZM41.5201 6.67188L41.6221 6.84389L41.6232 6.84325L41.5201 6.67188ZM44.1621 6.91903L44.0218 7.06154L44.0223 7.06208L44.1621 6.91903ZM44.7203 13V13.2C44.8308 13.2 44.9203 13.1105 44.9203 13H44.7203ZM43.7147 13H43.5147C43.5147 13.1105 43.6042 13.2 43.7147 13.2V13ZM43.3184 7.58381L43.1949 7.74113L43.1949 7.74113L43.3184 7.58381ZM41.3155 7.69034L41.4629 7.82556L41.4636 7.8248L41.3155 7.69034ZM40.9363 13V13.2C41.0467 13.2 41.1363 13.1105 41.1363 13H40.9363ZM39.9135 13H39.7135C39.7135 13.1105 39.8031 13.2 39.9135 13.2V13ZM39.5513 7.6179L39.4133 7.76269L39.4142 7.76354L39.5513 7.6179ZM37.8851 7.48153L37.7807 7.31098L37.7797 7.31157L37.8851 7.48153ZM37.3397 8.06108L37.1654 7.96293L37.165 7.96361L37.3397 8.06108ZM37.1351 13V13.2C37.2456 13.2 37.3351 13.1105 37.3351 13H37.1351ZM36.3294 13V6.45455H35.9294V13H36.3294ZM36.1294 6.65455H37.101V6.25455H36.1294V6.65455ZM36.901 6.45455V7.47727H37.301V6.45455H36.901ZM37.101 7.67727H37.1863V7.27727H37.101V7.67727ZM37.3726 7.54998C37.4942 7.23841 37.6875 7.00153 37.954 6.83215L37.7395 6.49455C37.3981 6.71154 37.1511 7.01727 36.9999 7.40456L37.3726 7.54998ZM37.9552 6.83143C38.2214 6.65973 38.5473 6.56932 38.9419 6.56932V6.16932C38.4843 6.16932 38.0801 6.27493 37.7384 6.49527L37.9552 6.83143ZM38.9419 6.56932C39.3433 6.56932 39.6608 6.66016 39.9072 6.82849L40.1329 6.49821C39.8054 6.2745 39.4042 6.16932 38.9419 6.16932V6.56932ZM39.9091 6.82976C40.1651 7.0004 40.368 7.24169 40.5162 7.56136L40.8791 7.39318C40.7034 7.01399 40.4546 6.71267 40.131 6.49694L39.9091 6.82976ZM40.6976 7.67727H40.7658V7.27727H40.6976V7.67727ZM40.945 7.56611C41.0949 7.26382 41.3189 7.02374 41.6221 6.84389L41.418 6.49986C41.0507 6.71774 40.772 7.01459 40.5866 7.38843L40.945 7.56611ZM41.6232 6.84325C41.9216 6.66368 42.2864 6.56932 42.726 6.56932V6.16932C42.2282 6.16932 41.789 6.27666 41.417 6.5005L41.6232 6.84325ZM42.726 6.56932C43.2656 6.56932 43.6917 6.73648 44.0218 7.06154L44.3024 6.77653C43.8882 6.36864 43.3569 6.16932 42.726 6.16932V6.56932ZM44.0223 7.06208C44.3408 7.37326 44.5203 7.87753 44.5203 8.61932H44.9203C44.9203 7.82134 44.7277 7.19208 44.3019 6.77598L44.0223 7.06208ZM44.5203 8.61932V13H44.9203V8.61932H44.5203ZM44.7203 12.8H43.7147V13.2H44.7203V12.8ZM43.9147 13V8.61932H43.5147V13H43.9147ZM43.9147 8.61932C43.9147 8.10308 43.7728 7.68629 43.4418 7.42648L43.1949 7.74113C43.3923 7.8961 43.5147 8.16965 43.5147 8.61932H43.9147ZM43.4418 7.42648C43.14 7.18956 42.7847 7.07273 42.3851 7.07273V7.47273C42.7014 7.47273 42.9683 7.56328 43.1949 7.74113L43.4418 7.42648ZM42.3851 7.07273C41.8821 7.07273 41.4665 7.22661 41.1675 7.55588L41.4636 7.8248C41.6702 7.59725 41.9677 7.47273 42.3851 7.47273V7.07273ZM41.1682 7.55513C40.8769 7.87251 40.7363 8.27237 40.7363 8.73864H41.1363C41.1363 8.35831 41.2484 8.05931 41.4629 7.82555L41.1682 7.55513ZM40.7363 8.73864V13H41.1363V8.73864H40.7363ZM40.9363 12.8H39.9135V13.2H40.9363V12.8ZM40.1135 13V8.51705H39.7135V13H40.1135ZM40.1135 8.51705C40.1135 8.09718 39.9751 7.74214 39.6884 7.47226L39.4142 7.76354C39.6104 7.9482 39.7135 8.19259 39.7135 8.51705H40.1135ZM39.6893 7.47311C39.4053 7.2025 39.0423 7.07273 38.6181 7.07273V7.47273C38.9552 7.47273 39.2144 7.57307 39.4133 7.76268L39.6893 7.47311ZM38.6181 7.07273C38.3191 7.07273 38.0387 7.15292 37.7807 7.31098L37.9896 7.65208C38.1861 7.53174 38.3943 7.47273 38.6181 7.47273V7.07273ZM37.7797 7.31157C37.5245 7.46984 37.3199 7.68866 37.1654 7.96293L37.5139 8.15923C37.6379 7.93918 37.7968 7.77163 37.9905 7.65149L37.7797 7.31157ZM37.165 7.96361C37.0097 8.24187 36.9351 8.55903 36.9351 8.90909H37.3351C37.3351 8.6171 37.3969 8.36893 37.5143 8.15855L37.165 7.96361ZM36.9351 8.90909V13H37.3351V8.90909H36.9351ZM37.1351 12.8H36.1294V13.2H37.1351V12.8ZM47.6713 12.7188L47.5661 12.8888L47.5674 12.8896L47.6713 12.7188ZM46.6188 11.5426L46.4387 11.6296L46.4393 11.6308L46.6188 11.5426ZM46.6188 8.00568L46.4385 7.91904L46.4383 7.91946L46.6188 8.00568ZM47.65 6.80398L47.7592 6.97154L47.7595 6.97137L47.65 6.80398ZM50.2111 6.53977L50.2758 6.35053L50.2758 6.35053L50.2111 6.53977ZM51.1188 7.09375L50.982 7.23966L50.9828 7.24042L51.1188 7.09375ZM51.7708 8.09943L51.9572 8.02713L51.9572 8.02713L51.7708 8.09943ZM52.0137 10.0682V10.2682C52.1241 10.2682 52.2137 10.1786 52.2137 10.0682H52.0137ZM46.9682 10.0682H46.7682C46.7682 10.1786 46.8578 10.2682 46.9682 10.2682V10.0682ZM46.9682 9.19886V8.99886C46.8578 8.99886 46.7682 9.08841 46.7682 9.19886H46.9682ZM50.9909 9.19886V9.39886C51.1014 9.39886 51.1909 9.30932 51.1909 9.19886H50.9909ZM50.7694 8.21023L50.5905 8.29967L50.5912 8.30106L50.7694 8.21023ZM50.1472 7.52415L50.0409 7.69355L50.0417 7.69405L50.1472 7.52415ZM48.1614 7.57102L48.2735 7.73668L48.2738 7.73644L48.1614 7.57102ZM47.4924 8.33807L47.3132 8.24927L47.3132 8.24927L47.4924 8.33807ZM47.5137 11.1889L47.3345 11.2778L47.3354 11.2795L47.5137 11.1889ZM48.2338 11.9688L48.1331 12.1415L48.1343 12.1422L48.2338 11.9688ZM50.0194 12.1222L50.0849 12.3111L50.0863 12.3106L50.0194 12.1222ZM50.5776 11.7812L50.7164 11.9253L50.7177 11.924L50.5776 11.7812ZM50.9398 11.2102L50.9939 11.0177C50.8939 10.9896 50.789 11.0427 50.7525 11.14L50.9398 11.2102ZM51.9114 11.483L52.1024 11.5422C52.1184 11.4907 52.1129 11.4348 52.0871 11.3874C52.0613 11.34 52.0174 11.305 51.9655 11.2904L51.9114 11.483ZM51.3958 12.3523L51.5388 12.492L51.5396 12.4912L51.3958 12.3523ZM50.5009 12.9318L50.5726 13.1185L50.5739 13.118L50.5009 12.9318ZM48.6898 5.56818L48.5128 5.4751C48.4802 5.53709 48.4824 5.61162 48.5186 5.67158C48.5548 5.73154 48.6198 5.76818 48.6898 5.76818V5.56818ZM49.7296 3.59091V3.39091C49.6553 3.39091 49.5871 3.43208 49.5526 3.49782L49.7296 3.59091ZM50.9057 3.59091L51.0717 3.70251C51.1129 3.64118 51.117 3.56211 51.0822 3.49689C51.0475 3.43166 50.9796 3.39091 50.9057 3.39091V3.59091ZM49.5762 5.56818V5.76818C49.6428 5.76818 49.705 5.73504 49.7421 5.67978L49.5762 5.56818ZM49.3034 12.9364C48.7028 12.9364 48.1962 12.8041 47.7753 12.5479L47.5674 12.8896C48.0613 13.1902 48.6427 13.3364 49.3034 13.3364V12.9364ZM47.7766 12.5487C47.3556 12.2882 47.0297 11.9252 46.7983 11.4544L46.4393 11.6308C46.7022 12.1657 47.078 12.5868 47.5661 12.8888L47.7766 12.5487ZM46.7989 11.4556C46.57 10.9818 46.4523 10.4245 46.4523 9.77841H46.0523C46.0523 10.4732 46.179 11.092 46.4387 11.6296L46.7989 11.4556ZM46.4523 9.77841C46.4523 9.13238 46.5699 8.57185 46.7992 8.0919L46.4383 7.91946C46.179 8.46224 46.0523 9.08353 46.0523 9.77841H46.4523ZM46.799 8.09233C47.0318 7.60817 47.3521 7.23681 47.7592 6.97154L47.5408 6.63641C47.0673 6.94501 46.7001 7.37479 46.4385 7.91904L46.799 8.09233ZM47.7595 6.97137C48.1664 6.70529 48.6445 6.56932 49.2012 6.56932V6.16932C48.5761 6.16932 48.02 6.32312 47.5406 6.63658L47.7595 6.97137ZM49.2012 6.56932C49.5194 6.56932 49.8342 6.62228 50.1464 6.72902L50.2758 6.35053C49.9232 6.22999 49.5648 6.16932 49.2012 6.16932V6.56932ZM50.1464 6.72902C50.4503 6.8329 50.7286 7.0021 50.982 7.23966L51.2556 6.94784C50.9635 6.67404 50.6367 6.47392 50.2758 6.35053L50.1464 6.72902ZM50.9828 7.24042C51.2292 7.46883 51.4311 7.77671 51.5843 8.17174L51.9572 8.02713C51.7866 7.58692 51.5538 7.22435 51.2548 6.94708L50.9828 7.24042ZM51.5843 8.17174C51.7347 8.55957 51.8137 9.04757 51.8137 9.64205H52.2137C52.2137 9.01493 52.1307 8.47452 51.9572 8.02713L51.5843 8.17174ZM51.8137 9.64205V10.0682H52.2137V9.64205H51.8137ZM52.0137 9.86818H46.9682V10.2682H52.0137V9.86818ZM47.1682 10.0682V9.19886H46.7682V10.0682H47.1682ZM46.9682 9.39886H50.9909V8.99886H46.9682V9.39886ZM51.1909 9.19886C51.1909 8.80228 51.1114 8.4409 50.9475 8.11939L50.5912 8.30106C50.7227 8.5591 50.7909 8.85681 50.7909 9.19886H51.1909ZM50.9482 8.12078C50.7872 7.79861 50.5547 7.54178 50.2527 7.35425L50.0417 7.69405C50.2795 7.84174 50.4618 8.0423 50.5905 8.29967L50.9482 8.12078ZM50.2535 7.35475C49.95 7.16423 49.5965 7.07273 49.2012 7.07273V7.47273C49.5331 7.47273 49.8103 7.54884 50.0409 7.69354L50.2535 7.35475ZM49.2012 7.07273C48.766 7.07273 48.379 7.18131 48.049 7.40561L48.2738 7.73644C48.529 7.56301 48.8352 7.47273 49.2012 7.47273V7.07273ZM48.0493 7.40537C47.7307 7.62089 47.4847 7.90313 47.3132 8.24927L47.6716 8.42686C47.8126 8.14233 48.0125 7.9132 48.2735 7.73668L48.0493 7.40537ZM47.3132 8.24927C47.1429 8.59293 47.058 8.96147 47.058 9.35227H47.458C47.458 9.02148 47.5294 8.71389 47.6716 8.42686L47.3132 8.24927ZM47.058 9.35227V9.93182H47.458V9.35227H47.058ZM47.058 9.93182C47.058 10.4484 47.147 10.8996 47.3345 11.2778L47.6929 11.1001C47.5395 10.7907 47.458 10.4039 47.458 9.93182H47.058ZM47.3354 11.2795C47.5247 11.652 47.7905 11.9417 48.1331 12.1415L48.3346 11.796C48.0635 11.6379 47.8492 11.4077 47.692 11.0983L47.3354 11.2795ZM48.1343 12.1422C48.4756 12.3382 48.8675 12.433 49.3034 12.433V12.033C48.9269 12.033 48.6057 11.9516 48.3334 11.7953L48.1343 12.1422ZM49.3034 12.433C49.5862 12.433 49.8475 12.3934 50.0849 12.3111L49.9538 11.9332C49.7651 11.9986 49.5491 12.033 49.3034 12.033V12.433ZM50.0863 12.3106C50.3275 12.2249 50.5385 12.0967 50.7164 11.9253L50.4388 11.6372C50.3042 11.7669 50.143 11.866 49.9524 11.9337L50.0863 12.3106ZM50.7177 11.924C50.8969 11.748 51.0327 11.532 51.1271 11.2805L50.7525 11.14C50.6764 11.343 50.5707 11.5077 50.4375 11.6385L50.7177 11.924ZM50.8858 11.4028L51.8573 11.6755L51.9655 11.2904L50.9939 11.0177L50.8858 11.4028ZM51.7204 11.4237C51.6275 11.7231 51.4718 11.9857 51.2519 12.2133L51.5396 12.4912C51.8027 12.2189 51.9908 11.9019 52.1024 11.5422L51.7204 11.4237ZM51.2527 12.2125C51.033 12.4374 50.7594 12.6157 50.4279 12.7456L50.5739 13.118C50.9526 12.9696 51.2756 12.7615 51.5388 12.492L51.2527 12.2125ZM50.4292 12.7451C50.1004 12.8714 49.7261 12.9364 49.3034 12.9364V13.3364C49.7672 13.3364 50.1911 13.265 50.5726 13.1185L50.4292 12.7451ZM48.8668 5.66127L49.9066 3.684L49.5526 3.49782L48.5128 5.4751L48.8668 5.66127ZM49.7296 3.79091H50.9057V3.39091H49.7296V3.79091ZM50.7397 3.47931L49.4102 5.45658L49.7421 5.67978L51.0717 3.70251L50.7397 3.47931ZM49.5762 5.36818H48.6898V5.76818H49.5762V5.36818Z" fill="url(#paint0_linear_1_7)"/>
<defs>
<linearGradient id="paint0_linear_1_7" x1="30" y1="1" x2="30" y2="16" gradientUnits="userSpaceOnUse">
<stop stop-color="#B0E700"/>
<stop offset="1" stop-color="#BB3000" stop-opacity="0.3"/>
</linearGradient>
</defs>
</svg>
